<?xml version="1.0" standalone="no"?>
<!DOCTYPE svg PUBLIC "-//W3C//DTD SVG 20010904//EN"
 "http://www.w3.org/TR/2001/REC-SVG-20010904/DTD/svg10.dtd">
<svg version="1.0" xmlns="http://www.w3.org/2000/svg"
 width="720.000000pt" height="720.000000pt" viewBox="0 0 720.000000 720.000000"
 preserveAspectRatio="xMidYMid meet">
<metadata>
Created by potrace 1.10, written by Peter Selinger 2001-2011
</metadata>
<g transform="translate(0.000000,720.000000) scale(0.100000,-0.100000)"
stroke="black" stroke-width="200px">
<path d="M2361 5841 c-12 -8 -15 -297 -18 -1925 -4 -1496 -2 -1920 7 -1931 11
-13 178 -15 1271 -15 l1259 0 -2 1938 -3 1937 -84 -2 c-46 -2 -89 -7 -96 -13
-7 -5 -32 -14 -56 -19 -67 -15 -132 -33 -149 -41 -9 -4 -31 -11 -50 -15 -19
-3 -60 -13 -90 -22 -30 -8 -80 -22 -110 -30 -30 -8 -77 -22 -104 -31 -67 -21
-148 -20 -226 2 -36 10 -90 25 -120 33 -30 8 -83 23 -117 33 -61 19 -64 19
-125 1 -35 -10 -92 -27 -128 -36 -36 -10 -87 -24 -115 -33 -66 -20 -147 -20
-215 0 -113 34 -246 70 -288 79 -23 5 -50 13 -60 18 -9 5 -36 12 -59 16 -24 4
-45 11 -49 16 -3 5 -19 9 -35 9 -17 0 -42 6 -57 14 -35 18 -162 30 -181 17z
m224 -142 c5 -5 20 -9 35 -9 14 0 38 -7 54 -15 15 -8 38 -15 50 -15 19 0 67
-13 151 -42 17 -6 48 -13 70 -17 22 -4 49 -12 60 -18 11 -6 37 -13 59 -16 21
-3 49 -13 62 -22 l24 -15 0 -1708 c0 -1315 -3 -1711 -12 -1720 -14 -14 -644
-17 -665 -4 -10 6 -13 384 -13 1811 0 991 2 1806 5 1810 6 10 106 -7 120 -20z
m2173 -1795 l-3 -1809 -315 -3 c-173 -1 -325 0 -337 3 l-23 5 0 1719 0 1719
40 16 c22 9 48 16 56 16 9 0 39 7 68 16 28 9 71 22 96 30 25 8 55 14 67 14 12
0 24 4 27 9 4 5 25 12 49 16 23 4 50 11 59 16 10 5 37 14 60 19 24 5 66 15 93
23 28 8 53 11 58 8 4 -4 6 -821 5 -1817z m-1071 1711 c19 -8 46 -15 60 -15 13
0 36 -6 51 -14 15 -7 46 -16 70 -19 23 -3 54 -12 67 -21 l25 -16 0 -1714 c0
-1554 -1 -1714 -16 -1720 -20 -8 -638 -8 -658 0 -15 6 -16 167 -16 1724 l0
1718 34 16 c19 9 48 16 64 16 17 0 33 4 37 9 3 6 27 13 53 17 26 4 60 13 77
20 40 18 108 17 152 -1z"/>
<path d="M2347 1453 c-2 -5 -3 -30 -3 -58 l1 -50 1268 -3 1267 -2 0 60 0 60
-1264 0 c-696 0 -1267 -3 -1269 -7z"/>
</g>
</svg>
